<mxfile host="Electron" agent="Mozilla/5.0 (Windows NT 10.0; Win64; x64) AppleWebKit/537.36 (KHTML, like Gecko) draw.io/28.1.2 Chrome/138.0.7204.243 Electron/37.4.0 Safari/537.36" version="28.1.2">
  <diagram name="Page-1" id="4e14MnDfn1doPlhyngxY">
    <mxGraphModel dx="1042" dy="626" grid="1" gridSize="10" guides="1" tooltips="1" connect="1" arrows="1" fold="1" page="1" pageScale="1" pageWidth="1169" pageHeight="827" math="0" shadow="0">
      <root>
        <mxCell id="0" />
        <mxCell id="1" parent="0" />
        <mxCell id="zzZW3iAsgWApVjhuWzjy-33" value="crm_cust_info" style="swimlane;fontStyle=0;childLayout=stackLayout;horizontal=1;startSize=30;horizontalStack=0;resizeParent=1;resizeParentMax=0;resizeLast=0;collapsible=1;marginBottom=0;whiteSpace=wrap;html=1;fontSize=16;rounded=1;fillColor=#dae8fc;strokeColor=#6c8ebf;" parent="1" vertex="1">
          <mxGeometry x="340" y="520" width="200" height="120" as="geometry" />
        </mxCell>
        <mxCell id="zzZW3iAsgWApVjhuWzjy-34" value="cst_id" style="text;strokeColor=none;fillColor=none;align=center;verticalAlign=middle;spacingLeft=4;spacingRight=4;overflow=hidden;points=[[0,0.5],[1,0.5]];portConstraint=eastwest;rotatable=0;whiteSpace=wrap;html=1;fontSize=16;rounded=1;" parent="zzZW3iAsgWApVjhuWzjy-33" vertex="1">
          <mxGeometry y="30" width="200" height="30" as="geometry" />
        </mxCell>
        <mxCell id="zzZW3iAsgWApVjhuWzjy-51" value="cst_key" style="text;strokeColor=none;fillColor=none;align=center;verticalAlign=middle;spacingLeft=4;spacingRight=4;overflow=hidden;points=[[0,0.5],[1,0.5]];portConstraint=eastwest;rotatable=0;whiteSpace=wrap;html=1;fontSize=16;rounded=1;" parent="zzZW3iAsgWApVjhuWzjy-33" vertex="1">
          <mxGeometry y="60" width="200" height="30" as="geometry" />
        </mxCell>
        <mxCell id="oV1ife8SuLFyNz0p8y8W-3" value="&lt;b&gt;CUSTOMER&lt;/b&gt;" style="text;strokeColor=#82b366;fillColor=#d5e8d4;align=center;verticalAlign=middle;spacingLeft=4;spacingRight=4;overflow=hidden;points=[[0,0.5],[1,0.5]];portConstraint=eastwest;rotatable=0;whiteSpace=wrap;html=1;fontSize=16;rounded=1;" vertex="1" parent="zzZW3iAsgWApVjhuWzjy-33">
          <mxGeometry y="90" width="200" height="30" as="geometry" />
        </mxCell>
        <mxCell id="zzZW3iAsgWApVjhuWzjy-35" value="CRM Customer Information" style="text;html=1;align=center;verticalAlign=middle;resizable=0;points=[];autosize=1;strokeColor=none;fillColor=none;fontSize=16;" parent="1" vertex="1">
          <mxGeometry x="330" y="490" width="220" height="30" as="geometry" />
        </mxCell>
        <mxCell id="zzZW3iAsgWApVjhuWzjy-36" value="crm_prd_info" style="swimlane;fontStyle=0;childLayout=stackLayout;horizontal=1;startSize=30;horizontalStack=0;resizeParent=1;resizeParentMax=0;resizeLast=0;collapsible=1;marginBottom=0;whiteSpace=wrap;html=1;fontSize=16;rounded=1;fillColor=#dae8fc;strokeColor=#6c8ebf;" parent="1" vertex="1">
          <mxGeometry x="337.5" y="240" width="200" height="90" as="geometry" />
        </mxCell>
        <mxCell id="zzZW3iAsgWApVjhuWzjy-37" value="prd_key" style="text;strokeColor=none;fillColor=none;align=center;verticalAlign=middle;spacingLeft=4;spacingRight=4;overflow=hidden;points=[[0,0.5],[1,0.5]];portConstraint=eastwest;rotatable=0;whiteSpace=wrap;html=1;fontSize=16;rounded=1;" parent="zzZW3iAsgWApVjhuWzjy-36" vertex="1">
          <mxGeometry y="30" width="200" height="30" as="geometry" />
        </mxCell>
        <mxCell id="oV1ife8SuLFyNz0p8y8W-1" value="&lt;b&gt;PRODUCT&lt;/b&gt;" style="text;strokeColor=#b85450;fillColor=#f8cecc;align=center;verticalAlign=middle;spacingLeft=4;spacingRight=4;overflow=hidden;points=[[0,0.5],[1,0.5]];portConstraint=eastwest;rotatable=0;whiteSpace=wrap;html=1;fontSize=16;rounded=1;" vertex="1" parent="zzZW3iAsgWApVjhuWzjy-36">
          <mxGeometry y="60" width="200" height="30" as="geometry" />
        </mxCell>
        <mxCell id="zzZW3iAsgWApVjhuWzjy-38" value="CRM Product Information" style="text;html=1;align=center;verticalAlign=middle;resizable=0;points=[];autosize=1;strokeColor=none;fillColor=none;fontSize=16;" parent="1" vertex="1">
          <mxGeometry x="340" y="210" width="200" height="30" as="geometry" />
        </mxCell>
        <mxCell id="zzZW3iAsgWApVjhuWzjy-39" value="CRM Sales Details" style="swimlane;fontStyle=0;childLayout=stackLayout;horizontal=1;startSize=30;horizontalStack=0;resizeParent=1;resizeParentMax=0;resizeLast=0;collapsible=1;marginBottom=0;whiteSpace=wrap;html=1;fontSize=16;rounded=1;fillColor=#dae8fc;strokeColor=#6c8ebf;" parent="1" vertex="1">
          <mxGeometry x="60" y="340" width="200" height="120" as="geometry" />
        </mxCell>
        <mxCell id="zzZW3iAsgWApVjhuWzjy-40" value="prd_key" style="text;strokeColor=none;fillColor=none;align=center;verticalAlign=middle;spacingLeft=4;spacingRight=4;overflow=hidden;points=[[0,0.5],[1,0.5]];portConstraint=eastwest;rotatable=0;whiteSpace=wrap;html=1;fontSize=16;rounded=1;" parent="zzZW3iAsgWApVjhuWzjy-39" vertex="1">
          <mxGeometry y="30" width="200" height="30" as="geometry" />
        </mxCell>
        <mxCell id="zzZW3iAsgWApVjhuWzjy-41" value="cst_id" style="text;strokeColor=none;fillColor=none;align=center;verticalAlign=middle;spacingLeft=4;spacingRight=4;overflow=hidden;points=[[0,0.5],[1,0.5]];portConstraint=eastwest;rotatable=0;whiteSpace=wrap;html=1;fontSize=16;rounded=1;" parent="zzZW3iAsgWApVjhuWzjy-39" vertex="1">
          <mxGeometry y="60" width="200" height="30" as="geometry" />
        </mxCell>
        <mxCell id="oV1ife8SuLFyNz0p8y8W-6" value="&lt;b&gt;SALES&lt;/b&gt;" style="text;strokeColor=#9673a6;fillColor=#e1d5e7;align=center;verticalAlign=middle;spacingLeft=4;spacingRight=4;overflow=hidden;points=[[0,0.5],[1,0.5]];portConstraint=eastwest;rotatable=0;whiteSpace=wrap;html=1;fontSize=16;rounded=1;" vertex="1" parent="zzZW3iAsgWApVjhuWzjy-39">
          <mxGeometry y="90" width="200" height="30" as="geometry" />
        </mxCell>
        <mxCell id="zzZW3iAsgWApVjhuWzjy-42" value="CRM Sales Details" style="text;html=1;align=center;verticalAlign=middle;resizable=0;points=[];autosize=1;strokeColor=none;fillColor=none;fontSize=16;" parent="1" vertex="1">
          <mxGeometry x="82.5" y="310" width="160" height="30" as="geometry" />
        </mxCell>
        <mxCell id="zzZW3iAsgWApVjhuWzjy-43" style="edgeStyle=orthogonalEdgeStyle;rounded=1;orthogonalLoop=1;jettySize=auto;html=1;entryX=0;entryY=0.5;entryDx=0;entryDy=0;curved=0;" parent="1" source="zzZW3iAsgWApVjhuWzjy-40" target="zzZW3iAsgWApVjhuWzjy-37" edge="1">
          <mxGeometry relative="1" as="geometry" />
        </mxCell>
        <mxCell id="zzZW3iAsgWApVjhuWzjy-44" style="edgeStyle=orthogonalEdgeStyle;rounded=1;orthogonalLoop=1;jettySize=auto;html=1;exitX=1;exitY=0.5;exitDx=0;exitDy=0;entryX=0;entryY=0.5;entryDx=0;entryDy=0;curved=0;" parent="1" source="zzZW3iAsgWApVjhuWzjy-41" target="zzZW3iAsgWApVjhuWzjy-34" edge="1">
          <mxGeometry relative="1" as="geometry" />
        </mxCell>
        <mxCell id="zzZW3iAsgWApVjhuWzjy-46" value="erp_cust_az12" style="swimlane;fontStyle=0;childLayout=stackLayout;horizontal=1;startSize=30;horizontalStack=0;resizeParent=1;resizeParentMax=0;resizeLast=0;collapsible=1;marginBottom=0;whiteSpace=wrap;html=1;fontSize=16;rounded=1;fillColor=#fff2cc;strokeColor=#d6b656;" parent="1" vertex="1">
          <mxGeometry x="662.5" y="390" width="197.5" height="90" as="geometry" />
        </mxCell>
        <mxCell id="zzZW3iAsgWApVjhuWzjy-47" value="cid" style="text;strokeColor=none;fillColor=none;align=center;verticalAlign=middle;spacingLeft=4;spacingRight=4;overflow=hidden;points=[[0,0.5],[1,0.5]];portConstraint=eastwest;rotatable=0;whiteSpace=wrap;html=1;fontSize=16;rounded=1;" parent="zzZW3iAsgWApVjhuWzjy-46" vertex="1">
          <mxGeometry y="30" width="197.5" height="30" as="geometry" />
        </mxCell>
        <mxCell id="oV1ife8SuLFyNz0p8y8W-4" value="&lt;b&gt;CUSTOMER&lt;/b&gt;" style="text;strokeColor=#82b366;fillColor=#d5e8d4;align=center;verticalAlign=middle;spacingLeft=4;spacingRight=4;overflow=hidden;points=[[0,0.5],[1,0.5]];portConstraint=eastwest;rotatable=0;whiteSpace=wrap;html=1;fontSize=16;rounded=1;" vertex="1" parent="zzZW3iAsgWApVjhuWzjy-46">
          <mxGeometry y="60" width="197.5" height="30" as="geometry" />
        </mxCell>
        <mxCell id="zzZW3iAsgWApVjhuWzjy-53" value="ERP Customer Information" style="text;html=1;align=center;verticalAlign=middle;resizable=0;points=[];autosize=1;strokeColor=none;fillColor=none;fontSize=16;" parent="1" vertex="1">
          <mxGeometry x="655" y="360" width="210" height="30" as="geometry" />
        </mxCell>
        <mxCell id="zzZW3iAsgWApVjhuWzjy-55" value="erp_loc_a101" style="swimlane;fontStyle=0;childLayout=stackLayout;horizontal=1;startSize=30;horizontalStack=0;resizeParent=1;resizeParentMax=0;resizeLast=0;collapsible=1;marginBottom=0;whiteSpace=wrap;html=1;fontSize=16;rounded=1;fillColor=#fff2cc;strokeColor=#d6b656;" parent="1" vertex="1">
          <mxGeometry x="662.5" y="550" width="200" height="90" as="geometry">
            <mxRectangle x="660" y="550" width="140" height="30" as="alternateBounds" />
          </mxGeometry>
        </mxCell>
        <mxCell id="zzZW3iAsgWApVjhuWzjy-56" value="cid" style="text;strokeColor=none;fillColor=none;align=center;verticalAlign=middle;spacingLeft=4;spacingRight=4;overflow=hidden;points=[[0,0.5],[1,0.5]];portConstraint=eastwest;rotatable=0;whiteSpace=wrap;html=1;fontSize=16;rounded=1;" parent="zzZW3iAsgWApVjhuWzjy-55" vertex="1">
          <mxGeometry y="30" width="200" height="30" as="geometry" />
        </mxCell>
        <mxCell id="oV1ife8SuLFyNz0p8y8W-5" value="&lt;b&gt;CUSTOMER&lt;/b&gt;" style="text;strokeColor=#82b366;fillColor=#d5e8d4;align=center;verticalAlign=middle;spacingLeft=4;spacingRight=4;overflow=hidden;points=[[0,0.5],[1,0.5]];portConstraint=eastwest;rotatable=0;whiteSpace=wrap;html=1;fontSize=16;rounded=1;" vertex="1" parent="zzZW3iAsgWApVjhuWzjy-55">
          <mxGeometry y="60" width="200" height="30" as="geometry" />
        </mxCell>
        <mxCell id="zzZW3iAsgWApVjhuWzjy-57" value="&lt;font&gt;ERP Customer Location&lt;/font&gt;" style="text;html=1;align=center;verticalAlign=middle;resizable=0;points=[];autosize=1;strokeColor=none;fillColor=none;fontSize=16;" parent="1" vertex="1">
          <mxGeometry x="668.75" y="520" width="190" height="30" as="geometry" />
        </mxCell>
        <mxCell id="zzZW3iAsgWApVjhuWzjy-59" value="erp_px_cat_g1v2" style="swimlane;fontStyle=0;childLayout=stackLayout;horizontal=1;startSize=30;horizontalStack=0;resizeParent=1;resizeParentMax=0;resizeLast=0;collapsible=1;marginBottom=0;whiteSpace=wrap;html=1;fontSize=16;rounded=1;fillColor=#fff2cc;strokeColor=#d6b656;" parent="1" vertex="1">
          <mxGeometry x="665" y="240" width="190" height="90" as="geometry" />
        </mxCell>
        <mxCell id="zzZW3iAsgWApVjhuWzjy-60" value="id" style="text;strokeColor=none;fillColor=none;align=center;verticalAlign=middle;spacingLeft=4;spacingRight=4;overflow=hidden;points=[[0,0.5],[1,0.5]];portConstraint=eastwest;rotatable=0;whiteSpace=wrap;html=1;fontSize=16;rounded=1;" parent="zzZW3iAsgWApVjhuWzjy-59" vertex="1">
          <mxGeometry y="30" width="190" height="30" as="geometry" />
        </mxCell>
        <mxCell id="oV1ife8SuLFyNz0p8y8W-2" value="&lt;b&gt;PRODUCT&lt;/b&gt;" style="text;strokeColor=#b85450;fillColor=#f8cecc;align=center;verticalAlign=middle;spacingLeft=4;spacingRight=4;overflow=hidden;points=[[0,0.5],[1,0.5]];portConstraint=eastwest;rotatable=0;whiteSpace=wrap;html=1;fontSize=16;rounded=1;" vertex="1" parent="zzZW3iAsgWApVjhuWzjy-59">
          <mxGeometry y="60" width="190" height="30" as="geometry" />
        </mxCell>
        <mxCell id="zzZW3iAsgWApVjhuWzjy-61" value="ERP Customer Information" style="text;html=1;align=center;verticalAlign=middle;resizable=0;points=[];autosize=1;strokeColor=none;fillColor=none;fontSize=16;" parent="1" vertex="1">
          <mxGeometry x="655" y="210" width="210" height="30" as="geometry" />
        </mxCell>
        <mxCell id="zzZW3iAsgWApVjhuWzjy-74" value="&lt;b&gt;&lt;font style=&quot;font-size: 16px;&quot;&gt;CRM&lt;/font&gt;&lt;/b&gt;" style="rounded=1;whiteSpace=wrap;html=1;fillColor=none;strokeColor=default;" parent="1" vertex="1">
          <mxGeometry x="257.5" y="660" width="80" height="30" as="geometry" />
        </mxCell>
        <mxCell id="oV1ife8SuLFyNz0p8y8W-10" style="edgeStyle=orthogonalEdgeStyle;rounded=1;orthogonalLoop=1;jettySize=auto;html=1;exitX=1;exitY=0.5;exitDx=0;exitDy=0;curved=0;" edge="1" parent="1" source="zzZW3iAsgWApVjhuWzjy-37" target="zzZW3iAsgWApVjhuWzjy-60">
          <mxGeometry relative="1" as="geometry" />
        </mxCell>
        <mxCell id="oV1ife8SuLFyNz0p8y8W-23" style="edgeStyle=orthogonalEdgeStyle;rounded=1;orthogonalLoop=1;jettySize=auto;html=1;exitX=0;exitY=0.5;exitDx=0;exitDy=0;entryX=1;entryY=0.5;entryDx=0;entryDy=0;curved=0;" edge="1" parent="1" source="zzZW3iAsgWApVjhuWzjy-47" target="zzZW3iAsgWApVjhuWzjy-51">
          <mxGeometry relative="1" as="geometry" />
        </mxCell>
        <mxCell id="oV1ife8SuLFyNz0p8y8W-25" style="edgeStyle=orthogonalEdgeStyle;rounded=1;orthogonalLoop=1;jettySize=auto;html=1;exitX=0;exitY=0.5;exitDx=0;exitDy=0;curved=0;" edge="1" parent="1" source="zzZW3iAsgWApVjhuWzjy-56" target="zzZW3iAsgWApVjhuWzjy-51">
          <mxGeometry relative="1" as="geometry" />
        </mxCell>
        <mxCell id="oV1ife8SuLFyNz0p8y8W-28" value="&lt;b&gt;&lt;font style=&quot;font-size: 26px;&quot;&gt;Data Integration Diagram&lt;/font&gt;&lt;/b&gt;" style="text;html=1;align=center;verticalAlign=middle;resizable=0;points=[];autosize=1;strokeColor=default;fillColor=none;rounded=1;" vertex="1" parent="1">
          <mxGeometry x="60" y="120" width="330" height="40" as="geometry" />
        </mxCell>
        <mxCell id="oV1ife8SuLFyNz0p8y8W-30" value="" style="endArrow=none;html=1;rounded=0;dashed=1;" edge="1" parent="1">
          <mxGeometry width="50" height="50" relative="1" as="geometry">
            <mxPoint x="580" y="720" as="sourcePoint" />
            <mxPoint x="580" y="160" as="targetPoint" />
          </mxGeometry>
        </mxCell>
        <mxCell id="oV1ife8SuLFyNz0p8y8W-31" value="&lt;b&gt;&lt;font style=&quot;font-size: 16px;&quot;&gt;ERP&lt;/font&gt;&lt;/b&gt;" style="rounded=1;whiteSpace=wrap;html=1;fillColor=none;strokeColor=default;" vertex="1" parent="1">
          <mxGeometry x="720" y="660" width="80" height="30" as="geometry" />
        </mxCell>
      </root>
    </mxGraphModel>
  </diagram>
</mxfile>
